<mxfile host="app.diagrams.net" agent="Mozilla/5.0 (Windows NT 10.0; Win64; x64) AppleWebKit/537.36 (KHTML, like Gecko) Chrome/136.0.0.0 Safari/537.36" version="27.1.4">
  <diagram name="ページ1" id="0jS_F3MjOgUKThGgYa0P">
    <mxGraphModel dx="1042" dy="527" grid="1" gridSize="10" guides="1" tooltips="1" connect="1" arrows="1" fold="1" page="1" pageScale="1" pageWidth="827" pageHeight="1169" math="0" shadow="0">
      <root>
        <mxCell id="0" />
        <mxCell id="1" parent="0" />
        <mxCell id="KSx1xIE5BtY3jCAsn8xM-1" value="家計の管理" style="swimlane;childLayout=stackLayout;resizeParent=1;resizeParentMax=0;startSize=20;html=1;fontFamily=Times New Roman;" vertex="1" parent="1">
          <mxGeometry x="170" y="240" width="370" height="800" as="geometry" />
        </mxCell>
        <mxCell id="KSx1xIE5BtY3jCAsn8xM-2" value="お客様" style="swimlane;startSize=20;html=1;fontFamily=Times New Roman;" vertex="1" parent="KSx1xIE5BtY3jCAsn8xM-1">
          <mxGeometry y="20" width="130" height="780" as="geometry" />
        </mxCell>
        <mxCell id="KSx1xIE5BtY3jCAsn8xM-5" value="ボタンを押す" style="shape=ext;double=1;rounded=1;whiteSpace=wrap;html=1;" vertex="1" parent="KSx1xIE5BtY3jCAsn8xM-2">
          <mxGeometry x="5" y="55" width="85" height="65" as="geometry" />
        </mxCell>
        <mxCell id="KSx1xIE5BtY3jCAsn8xM-10" value="" style="endArrow=classic;html=1;rounded=0;entryX=0;entryY=0.5;entryDx=0;entryDy=0;" edge="1" parent="KSx1xIE5BtY3jCAsn8xM-2" target="KSx1xIE5BtY3jCAsn8xM-7">
          <mxGeometry width="50" height="50" relative="1" as="geometry">
            <mxPoint x="90" y="90" as="sourcePoint" />
            <mxPoint x="140" y="40" as="targetPoint" />
          </mxGeometry>
        </mxCell>
        <mxCell id="KSx1xIE5BtY3jCAsn8xM-24" value="" style="endArrow=classic;html=1;rounded=0;" edge="1" parent="KSx1xIE5BtY3jCAsn8xM-2">
          <mxGeometry width="50" height="50" relative="1" as="geometry">
            <mxPoint x="60" y="560" as="sourcePoint" />
            <mxPoint x="140.5" y="560" as="targetPoint" />
          </mxGeometry>
        </mxCell>
        <mxCell id="KSx1xIE5BtY3jCAsn8xM-25" value="" style="endArrow=none;html=1;rounded=0;" edge="1" parent="KSx1xIE5BtY3jCAsn8xM-2">
          <mxGeometry width="50" height="50" relative="1" as="geometry">
            <mxPoint x="60" y="560" as="sourcePoint" />
            <mxPoint x="60" y="310" as="targetPoint" />
          </mxGeometry>
        </mxCell>
        <mxCell id="KSx1xIE5BtY3jCAsn8xM-26" value="" style="endArrow=none;html=1;rounded=0;" edge="1" parent="KSx1xIE5BtY3jCAsn8xM-2">
          <mxGeometry width="50" height="50" relative="1" as="geometry">
            <mxPoint x="60" y="310" as="sourcePoint" />
            <mxPoint x="130" y="310" as="targetPoint" />
          </mxGeometry>
        </mxCell>
        <mxCell id="KSx1xIE5BtY3jCAsn8xM-3" value="画面" style="swimlane;startSize=20;html=1;fontFamily=Times New Roman;" vertex="1" parent="KSx1xIE5BtY3jCAsn8xM-1">
          <mxGeometry x="130" y="20" width="120" height="780" as="geometry" />
        </mxCell>
        <mxCell id="KSx1xIE5BtY3jCAsn8xM-7" value="支出入力画面を表示" style="shape=ext;double=1;rounded=1;whiteSpace=wrap;html=1;" vertex="1" parent="KSx1xIE5BtY3jCAsn8xM-3">
          <mxGeometry x="14" y="55" width="100" height="65" as="geometry" />
        </mxCell>
        <mxCell id="KSx1xIE5BtY3jCAsn8xM-11" value="&lt;table&gt;&lt;tbody&gt;&lt;tr&gt;&lt;td data-col-size=&quot;sm&quot; data-end=&quot;511&quot; data-start=&quot;501&quot;&gt;&lt;strong data-end=&quot;510&quot; data-start=&quot;503&quot;&gt;&lt;/strong&gt;&lt;/td&gt;&lt;/tr&gt;&lt;/tbody&gt;&lt;/table&gt;&lt;table&gt;&lt;tbody&gt;&lt;tr&gt;&lt;td data-end=&quot;530&quot; data-start=&quot;511&quot; data-col-size=&quot;sm&quot;&gt;金額・カテゴリ・日付などを入力&lt;/td&gt;&lt;/tr&gt;&lt;/tbody&gt;&lt;/table&gt;" style="shape=ext;double=1;rounded=1;whiteSpace=wrap;html=1;" vertex="1" parent="KSx1xIE5BtY3jCAsn8xM-3">
          <mxGeometry x="14" y="170" width="100" height="65" as="geometry" />
        </mxCell>
        <mxCell id="KSx1xIE5BtY3jCAsn8xM-12" value="チェックを押す" style="rhombus;whiteSpace=wrap;html=1;" vertex="1" parent="KSx1xIE5BtY3jCAsn8xM-3">
          <mxGeometry y="280" width="120" height="60" as="geometry" />
        </mxCell>
        <mxCell id="KSx1xIE5BtY3jCAsn8xM-13" value="" style="endArrow=classic;html=1;rounded=0;" edge="1" parent="KSx1xIE5BtY3jCAsn8xM-3">
          <mxGeometry width="50" height="50" relative="1" as="geometry">
            <mxPoint x="60" y="120" as="sourcePoint" />
            <mxPoint x="60.5" y="170" as="targetPoint" />
          </mxGeometry>
        </mxCell>
        <mxCell id="KSx1xIE5BtY3jCAsn8xM-14" value="" style="endArrow=classic;html=1;rounded=0;exitX=0.5;exitY=1;exitDx=0;exitDy=0;" edge="1" parent="KSx1xIE5BtY3jCAsn8xM-3">
          <mxGeometry width="50" height="50" relative="1" as="geometry">
            <mxPoint x="59.5" y="235" as="sourcePoint" />
            <mxPoint x="59.5" y="280" as="targetPoint" />
          </mxGeometry>
        </mxCell>
        <mxCell id="KSx1xIE5BtY3jCAsn8xM-21" value="システムに情報を送る" style="shape=ext;double=1;rounded=1;whiteSpace=wrap;html=1;" vertex="1" parent="KSx1xIE5BtY3jCAsn8xM-3">
          <mxGeometry x="14" y="397.5" width="100" height="65" as="geometry" />
        </mxCell>
        <mxCell id="KSx1xIE5BtY3jCAsn8xM-22" value="" style="endArrow=classic;html=1;rounded=0;exitX=0.5;exitY=1;exitDx=0;exitDy=0;" edge="1" parent="KSx1xIE5BtY3jCAsn8xM-3" source="KSx1xIE5BtY3jCAsn8xM-12">
          <mxGeometry width="50" height="50" relative="1" as="geometry">
            <mxPoint x="60" y="347.5" as="sourcePoint" />
            <mxPoint x="60.5" y="397.5" as="targetPoint" />
          </mxGeometry>
        </mxCell>
        <mxCell id="KSx1xIE5BtY3jCAsn8xM-23" value="エラーメッセージを表示" style="shape=ext;double=1;rounded=1;whiteSpace=wrap;html=1;" vertex="1" parent="KSx1xIE5BtY3jCAsn8xM-3">
          <mxGeometry x="10" y="530" width="100" height="65" as="geometry" />
        </mxCell>
        <mxCell id="KSx1xIE5BtY3jCAsn8xM-31" value="ある" style="text;html=1;align=center;verticalAlign=middle;resizable=0;points=[];autosize=1;strokeColor=none;fillColor=none;" vertex="1" parent="KSx1xIE5BtY3jCAsn8xM-3">
          <mxGeometry x="50" y="348" width="50" height="30" as="geometry" />
        </mxCell>
        <mxCell id="KSx1xIE5BtY3jCAsn8xM-34" value="成功なメッセージを表示" style="shape=ext;double=1;rounded=1;whiteSpace=wrap;html=1;" vertex="1" parent="KSx1xIE5BtY3jCAsn8xM-3">
          <mxGeometry x="10" y="650" width="100" height="65" as="geometry" />
        </mxCell>
        <mxCell id="KSx1xIE5BtY3jCAsn8xM-4" value="家計のシステム" style="swimlane;startSize=20;html=1;fontFamily=Times New Roman;" vertex="1" parent="KSx1xIE5BtY3jCAsn8xM-1">
          <mxGeometry x="250" y="20" width="120" height="780" as="geometry" />
        </mxCell>
        <mxCell id="KSx1xIE5BtY3jCAsn8xM-32" value="家計のDBを保存" style="shape=cylinder3;whiteSpace=wrap;html=1;boundedLbl=1;backgroundOutline=1;size=15;" vertex="1" parent="KSx1xIE5BtY3jCAsn8xM-4">
          <mxGeometry x="20" y="400" width="90" height="140" as="geometry" />
        </mxCell>
        <mxCell id="KSx1xIE5BtY3jCAsn8xM-33" value="" style="endArrow=classic;html=1;rounded=0;" edge="1" parent="KSx1xIE5BtY3jCAsn8xM-4">
          <mxGeometry width="50" height="50" relative="1" as="geometry">
            <mxPoint x="-10" y="440" as="sourcePoint" />
            <mxPoint x="20" y="440" as="targetPoint" />
          </mxGeometry>
        </mxCell>
        <mxCell id="KSx1xIE5BtY3jCAsn8xM-35" value="" style="endArrow=classic;html=1;rounded=0;entryX=1;entryY=0.5;entryDx=0;entryDy=0;" edge="1" parent="KSx1xIE5BtY3jCAsn8xM-4" target="KSx1xIE5BtY3jCAsn8xM-34">
          <mxGeometry width="50" height="50" relative="1" as="geometry">
            <mxPoint x="64.5" y="600" as="sourcePoint" />
            <mxPoint x="65" y="650" as="targetPoint" />
            <Array as="points">
              <mxPoint x="64.5" y="540" />
              <mxPoint x="65" y="683" />
            </Array>
          </mxGeometry>
        </mxCell>
        <mxCell id="KSx1xIE5BtY3jCAsn8xM-30" value="ない" style="text;html=1;align=center;verticalAlign=middle;resizable=0;points=[];autosize=1;strokeColor=none;fillColor=none;" vertex="1" parent="1">
          <mxGeometry x="235" y="538" width="50" height="30" as="geometry" />
        </mxCell>
      </root>
    </mxGraphModel>
  </diagram>
</mxfile>
